<?xml version="1.0" encoding="UTF-8"?>
<!DOCTYPE svg PUBLIC "-//W3C//DTD SVG 1.1//EN" "http://www.w3.org/Graphics/SVG/1.1/DTD/svg11.dtd">
<svg xmlns="http://www.w3.org/2000/svg" version="1.1" width="1920px" height="1080px" style="shape-rendering:geometricPrecision; text-rendering:geometricPrecision; image-rendering:optimizeQuality; fill-rule:evenodd; clip-rule:evenodd" xmlns:xlink="http://www.w3.org/1999/xlink">
<g><path style="opacity:0.004" fill="#000000" d="M 69.5,242.5 C 71.0265,243.492 71.6932,244.992 71.5,247C 71.4857,248.385 71.1524,249.551 70.5,250.5C 70.4249,247.794 70.0916,245.127 69.5,242.5 Z"/></g>
<g><path style="opacity:0.932" fill="#04267f" d="M 243.5,703.5 C 238.16,702.719 232.66,702.052 227,701.5C 225.624,701.684 224.791,702.351 224.5,703.5C 212.211,701.475 199.878,698.975 187.5,696C 176.535,691.008 165.535,686.008 154.5,681C 142.673,676.249 131.007,676.416 119.5,681.5C 117.274,680.441 114.941,680.608 112.5,682C 108.723,685.032 104.723,687.699 100.5,690C 98.8203,692.811 99.4869,694.644 102.5,695.5C 98.3006,712.768 87.6339,718.935 70.5,714C 67.7336,712.533 65.2336,710.7 63,708.5C 60.546,703.877 58.7126,699.044 57.5,694C 59.5927,686.688 60.7593,679.188 61,671.5C 61.9761,647.678 62.4761,623.844 62.5,600C 61.3653,534.795 61.3653,469.628 62.5,404.5C 61.6872,392.879 61.1872,381.213 61,369.5C 55.3134,361.468 49.1467,353.801 42.5,346.5C 38.4866,344.494 34.8199,341.994 31.5,339C 28.5802,337.766 25.5802,336.766 22.5,336C 21.09,335.632 20.09,334.799 19.5,333.5C 38.3029,311.917 54.1362,288.25 67,262.5C 68.4626,258.578 69.6293,254.578 70.5,250.5C 71.1524,249.551 71.4857,248.385 71.5,247C 71.6932,244.992 71.0265,243.492 69.5,242.5C 70.0312,240.376 71.3645,238.876 73.5,238C 75.7008,237.175 77.5341,237.675 79,239.5C 90.2245,271.544 106.724,300.544 128.5,326.5C 120.249,332.577 112.415,339.244 105,346.5C 98.7182,354.443 93.7182,363.11 90,372.5C 89.5002,382.161 89.3335,391.828 89.5,401.5C 95.099,401.304 100.599,400.638 106,399.5C 128.864,402.118 151.698,404.784 174.5,407.5C 181.882,407.124 189.215,406.291 196.5,405C 220.247,394.136 241.581,379.803 260.5,362C 266.754,358.346 272.588,358.846 278,363.5C 280.077,368.286 279.91,372.953 277.5,377.5C 278.704,396.858 279.87,416.191 281,435.5C 281.701,511.5 282.368,587.5 283,663.5C 284.572,668.676 283.906,673.676 281,678.5C 271.199,691.178 258.699,699.511 243.5,703.5 Z M 263.5,387.5 C 264.165,391.151 264.499,394.985 264.5,399C 264.638,403.344 264.138,407.511 263,411.5C 262.833,430.5 262.667,449.5 262.5,468.5C 262.338,487.98 262.838,507.313 264,526.5C 264.667,570.5 264.667,614.5 264,658.5C 258.074,665.428 251.241,671.262 243.5,676C 239.058,676.419 234.725,677.252 230.5,678.5C 219.434,677.249 208.434,675.415 197.5,673C 183.514,666.845 169.181,661.512 154.5,657C 133.489,653.331 115.155,658.498 99.5,672.5C 97.6697,657.238 96.503,641.905 96,626.5C 95.2203,556.398 93.5537,486.398 91,416.5C 102.075,414.056 113.242,413.889 124.5,416C 156.288,424.978 187.955,425.311 219.5,417C 235.061,408.395 249.727,398.561 263.5,387.5 Z"/></g>
<g><path style="opacity:0.966" fill="#1c75fd" d="M 900.5,407.5 C 937.833,407.5 975.167,407.5 1012.5,407.5C 1012.5,410.167 1012.5,412.833 1012.5,415.5C 1002.94,414.926 993.606,416.092 984.5,419C 978.508,421.659 974.675,426.159 973,432.5C 971.863,465.141 971.363,497.808 971.5,530.5C 971.667,560.5 971.833,590.5 972,620.5C 972.633,632.082 978.799,637.582 990.5,637C 1007.83,637.667 1025.17,637.667 1042.5,637C 1066.7,637.154 1084.54,626.654 1096,605.5C 1099.27,599.288 1102.27,592.954 1105,586.5C 1107.71,585.074 1110.21,585.408 1112.5,587.5C 1105.57,609.131 1098.73,630.797 1092,652.5C 1028.24,653.498 964.405,653.831 900.5,653.5C 900.5,651.167 900.5,648.833 900.5,646.5C 910.148,647.45 919.148,645.617 927.5,641C 932.614,636.749 935.114,631.249 935,624.5C 935.667,562.167 935.667,499.833 935,437.5C 935.016,425.52 929.182,418.353 917.5,416C 911.843,415.501 906.176,415.334 900.5,415.5C 900.5,412.833 900.5,410.167 900.5,407.5 Z"/></g>
<g><path style="opacity:0.995" fill="#03257d" d="M 338.5,407.5 C 373.502,407.333 408.502,407.5 443.5,408C 468.199,407.562 489.699,415.395 508,431.5C 523.28,447.943 528.947,467.276 525,489.5C 517.983,520.845 498.483,538.679 466.5,543C 447.014,544.727 427.681,543.561 408.5,539.5C 408.333,563.169 408.5,586.836 409,610.5C 409.008,618.644 410.008,626.644 412,634.5C 413.833,639 417,642.167 421.5,644C 429.028,646.062 436.694,646.895 444.5,646.5C 444.5,648.833 444.5,651.167 444.5,653.5C 409.167,653.5 373.833,653.5 338.5,653.5C 338.5,651.167 338.5,648.833 338.5,646.5C 348.132,647.407 357.132,645.574 365.5,641C 371.128,635.018 373.628,627.851 373,619.5C 373.667,560.5 373.667,501.5 373,442.5C 374.501,428.04 368.335,419.207 354.5,416C 349.177,415.501 343.844,415.334 338.5,415.5C 338.5,412.833 338.5,410.167 338.5,407.5 Z M 423.5,423.5 C 454.066,420.93 473.566,434.263 482,463.5C 486.811,483.58 482.811,501.58 470,517.5C 460.893,526.552 449.893,531.218 437,531.5C 427.704,530.943 418.538,529.609 409.5,527.5C 408.5,493.84 408.167,460.173 408.5,426.5C 413.65,425.623 418.65,424.623 423.5,423.5 Z"/></g>
<g><path style="opacity:0.991" fill="#02257d" d="M 853.5,432.5 C 855.5,432.5 857.5,432.5 859.5,432.5C 859.5,450.833 859.5,469.167 859.5,487.5C 872.5,487.5 885.5,487.5 898.5,487.5C 898.5,491.833 898.5,496.167 898.5,500.5C 885.5,500.5 872.5,500.5 859.5,500.5C 859.333,538.501 859.5,576.501 860,614.5C 861.89,634.005 871.39,639.171 888.5,630C 891.317,627.362 893.65,624.362 895.5,621C 898.227,620.182 900.894,620.348 903.5,621.5C 898.58,636.586 888.913,647.419 874.5,654C 858.935,659.478 845.768,655.978 835,643.5C 830.833,635.001 828.833,626.001 829,616.5C 828.5,577.835 828.333,539.168 828.5,500.5C 819.833,500.5 811.167,500.5 802.5,500.5C 802.192,498.076 802.526,495.743 803.5,493.5C 819.707,485.127 832.54,473.127 842,457.5C 845.937,449.179 849.77,440.846 853.5,432.5 Z"/></g>
<g><path style="opacity:0.862" fill="#04257d" d="M 222.5,450.5 C 225.044,450.104 227.211,450.771 229,452.5C 229.37,460.763 226.203,467.43 219.5,472.5C 215.833,474.667 212.167,476.833 208.5,479C 200.245,480.572 191.911,480.905 183.5,480C 177.234,477.613 171.068,475.113 165,472.5C 160.177,473.995 155.677,476.162 151.5,479C 149.963,480.11 149.297,481.61 149.5,483.5C 140.989,484.527 138.156,480.86 141,472.5C 147.289,463.57 155.956,458.903 167,458.5C 174.007,459.701 180.84,461.534 187.5,464C 190.833,464.667 194.167,464.667 197.5,464C 205.54,458.754 213.874,454.254 222.5,450.5 Z"/></g>
<g><path style="opacity:0.996" fill="#03257d" d="M 580.5,482.5 C 583.833,482.5 587.167,482.5 590.5,482.5C 590.333,493.838 590.5,505.172 591,516.5C 597.375,504.795 605.875,494.961 616.5,487C 629.588,479.794 641.421,481.294 652,491.5C 657.293,500.607 656.46,509.107 649.5,517C 643.365,521.19 637.032,521.523 630.5,518C 625.135,513.986 619.469,510.486 613.5,507.5C 608.635,509.855 604.468,513.189 601,517.5C 597.268,522.906 593.935,528.573 591,534.5C 590.037,566.873 590.37,599.206 592,631.5C 594.568,638.401 599.402,642.901 606.5,645C 610.77,646.075 615.103,646.575 619.5,646.5C 619.5,648.833 619.5,651.167 619.5,653.5C 590.833,653.5 562.167,653.5 533.5,653.5C 533.5,651.167 533.5,648.833 533.5,646.5C 542.356,647.346 549.856,644.679 556,638.5C 556.667,637.167 557.333,635.833 558,634.5C 559.618,600.196 559.951,565.863 559,531.5C 558.667,526.833 558.333,522.167 558,517.5C 556.336,510.999 552.169,507.666 545.5,507.5C 541.46,507.801 537.627,508.801 534,510.5C 529.605,505.171 530.771,501.671 537.5,500C 552.054,494.434 566.387,488.6 580.5,482.5 Z"/></g>
<g><path style="opacity:0.993" fill="#03257d" d="M 722.5,482.5 C 755.221,478.603 778.721,491.27 793,520.5C 796.506,530.197 798.006,540.197 797.5,550.5C 759.5,550.5 721.5,550.5 683.5,550.5C 682.49,576.325 691.156,598.158 709.5,616C 728.424,630.542 748.424,632.209 769.5,621C 779.89,612.773 786.89,602.273 790.5,589.5C 794.441,589.453 796.774,591.286 797.5,595C 792.813,619.388 780.147,638.388 759.5,652C 722.779,666.527 692.945,657.694 670,625.5C 654.542,594.412 652.542,562.412 664,529.5C 675.399,503.587 694.899,487.92 722.5,482.5 Z M 715.5,496.5 C 744.076,495.74 758.743,509.74 759.5,538.5C 734.175,539.5 708.842,539.833 683.5,539.5C 685.158,518.21 695.824,503.877 715.5,496.5 Z"/></g>
<g><path style="opacity:0.968" fill="#1c75fd" d="M 1179.5,482.5 C 1194.9,481.265 1209.9,483.098 1224.5,488C 1240.02,495.525 1247.52,508.025 1247,525.5C 1247.03,559.539 1247.7,593.539 1249,627.5C 1249.78,631.277 1252.11,633.277 1256,633.5C 1258.82,633.007 1261.32,631.84 1263.5,630C 1267.02,626.318 1270.68,622.818 1274.5,619.5C 1276.58,625.908 1275.41,631.575 1271,636.5C 1262.17,647.994 1250.67,654.994 1236.5,657.5C 1228.04,657.189 1222.21,653.189 1219,645.5C 1217.77,640.847 1216.6,636.18 1215.5,631.5C 1206.34,638.578 1197.01,645.411 1187.5,652C 1168.5,660.913 1151,658.746 1135,645.5C 1124.23,631.305 1121.56,615.639 1127,598.5C 1130.96,589.205 1137.13,581.705 1145.5,576C 1167.46,562.392 1190.8,551.559 1215.5,543.5C 1217.35,531.536 1216.19,519.87 1212,508.5C 1201.47,494.22 1187.97,490.72 1171.5,498C 1162.83,504.683 1159.83,513.35 1162.5,524C 1161.9,537.601 1154.9,543.601 1141.5,542C 1132.12,537.374 1128.62,529.874 1131,519.5C 1134.75,505.41 1143.25,495.243 1156.5,489C 1164.07,486.028 1171.74,483.861 1179.5,482.5 Z M 1215.5,555.5 C 1216.66,575.996 1216.83,596.663 1216,617.5C 1208.01,624.913 1198.84,630.413 1188.5,634C 1170.24,636.765 1159.4,628.932 1156,610.5C 1154.83,597.025 1159.66,586.192 1170.5,578C 1184.76,568.872 1199.76,561.372 1215.5,555.5 Z"/></g>
<g><path style="opacity:0.977" fill="#1c75fd" d="M 1316.5,482.5 C 1319.83,482.5 1323.17,482.5 1326.5,482.5C 1326.33,493.838 1326.5,505.172 1327,516.5C 1337.31,503.6 1349.81,493.434 1364.5,486C 1392.73,476.618 1411.9,485.784 1422,513.5C 1423.65,520.067 1424.65,526.733 1425,533.5C 1425.03,567.206 1425.7,600.873 1427,634.5C 1429.16,641.652 1433.99,645.485 1441.5,646C 1444.48,646.498 1447.48,646.665 1450.5,646.5C 1450.5,648.833 1450.5,651.167 1450.5,653.5C 1422.83,653.5 1395.17,653.5 1367.5,653.5C 1367.5,651.167 1367.5,648.833 1367.5,646.5C 1374.51,647.093 1381.17,645.926 1387.5,643C 1391.09,639.995 1393.25,636.162 1394,631.5C 1394.67,600.167 1394.67,568.833 1394,537.5C 1393.72,529.379 1391.72,521.712 1388,514.5C 1380.1,506.314 1370.6,503.814 1359.5,507C 1346.81,511.357 1335.98,518.524 1327,528.5C 1326.08,563.521 1326.41,598.521 1328,633.5C 1329.34,637.837 1331.84,641.337 1335.5,644C 1341.34,645.951 1347.34,646.784 1353.5,646.5C 1353.5,648.833 1353.5,651.167 1353.5,653.5C 1325.83,653.5 1298.17,653.5 1270.5,653.5C 1270.5,651.167 1270.5,648.833 1270.5,646.5C 1278.88,647.62 1286.04,645.286 1292,639.5C 1294.85,632.47 1296.18,625.137 1296,617.5C 1296.77,585.155 1296.44,552.822 1295,520.5C 1294.79,512.794 1290.95,508.461 1283.5,507.5C 1279.34,507.873 1275.34,508.873 1271.5,510.5C 1269.39,507.846 1268.72,505.013 1269.5,502C 1285.48,496 1301.15,489.5 1316.5,482.5 Z"/></g>
<g><path style="opacity:0.972" fill="#1c75fd" d="M 1525.5,482.5 C 1549.83,479.658 1569.99,487.325 1586,505.5C 1591.92,514.003 1592.92,523.003 1589,532.5C 1580.46,539.458 1571.29,540.292 1561.5,535C 1560,533.5 1558.5,532 1557,530.5C 1554.8,523.65 1553.13,516.65 1552,509.5C 1547.67,499.911 1540.17,495.245 1529.5,495.5C 1517.02,495.822 1506.86,500.822 1499,510.5C 1490.09,523.977 1485.59,538.81 1485.5,555C 1485.41,580.81 1494.41,602.81 1512.5,621C 1541.61,636.346 1565.11,630.18 1583,602.5C 1585.74,597.701 1587.9,592.701 1589.5,587.5C 1592.39,587.61 1594.72,588.777 1596.5,591C 1591.75,617.538 1578.09,637.871 1555.5,652C 1518.63,666.495 1489.46,656.995 1468,623.5C 1453.9,594.329 1451.9,564.329 1462,533.5C 1474.16,505.159 1495.33,488.159 1525.5,482.5 Z"/></g>
<g><path style="opacity:0.971" fill="#1c75fd" d="M 1677.5,482.5 C 1710.22,478.603 1733.72,491.27 1748,520.5C 1751.51,530.197 1753.01,540.197 1752.5,550.5C 1714.5,550.5 1676.5,550.5 1638.5,550.5C 1637.49,576.325 1646.16,598.158 1664.5,616C 1683.42,630.542 1703.42,632.209 1724.5,621C 1734.89,612.773 1741.89,602.273 1745.5,589.5C 1749.44,589.453 1751.77,591.286 1752.5,595C 1747.81,619.388 1735.15,638.388 1714.5,652C 1677.78,666.527 1647.95,657.694 1625,625.5C 1609.54,594.412 1607.54,562.412 1619,529.5C 1630.4,503.587 1649.9,487.92 1677.5,482.5 Z M 1670.5,496.5 C 1699.08,495.74 1713.74,509.74 1714.5,538.5C 1689.18,539.5 1663.84,539.833 1638.5,539.5C 1640.16,518.21 1650.82,503.877 1670.5,496.5 Z"/></g>
<g><path style="opacity:0.981" fill="#1c75fd" d="M 1805.5,482.5 C 1808.83,482.5 1812.17,482.5 1815.5,482.5C 1815.33,493.838 1815.5,505.172 1816,516.5C 1822.37,504.795 1830.87,494.961 1841.5,487C 1854.59,479.794 1866.42,481.294 1877,491.5C 1882.29,500.607 1881.46,509.107 1874.5,517C 1868.37,521.19 1862.03,521.523 1855.5,518C 1850.14,513.986 1844.47,510.486 1838.5,507.5C 1833.63,509.855 1829.47,513.189 1826,517.5C 1822.27,522.906 1818.93,528.573 1816,534.5C 1815.04,566.873 1815.37,599.206 1817,631.5C 1819.57,638.401 1824.4,642.901 1831.5,645C 1835.77,646.075 1840.1,646.575 1844.5,646.5C 1844.5,648.833 1844.5,651.167 1844.5,653.5C 1815.83,653.5 1787.17,653.5 1758.5,653.5C 1758.5,651.167 1758.5,648.833 1758.5,646.5C 1767.36,647.346 1774.86,644.679 1781,638.5C 1781.67,637.167 1782.33,635.833 1783,634.5C 1784.62,600.196 1784.95,565.863 1784,531.5C 1783.67,526.833 1783.33,522.167 1783,517.5C 1781.34,510.999 1777.17,507.666 1770.5,507.5C 1766.46,507.801 1762.63,508.801 1759,510.5C 1754.6,505.171 1755.77,501.671 1762.5,500C 1777.05,494.434 1791.39,488.6 1805.5,482.5 Z"/></g>
<g><path style="opacity:0.884" fill="#04257d" d="M 233.5,503.5 C 237.8,503.725 239.466,506.059 238.5,510.5C 235.489,528.35 226.156,541.85 210.5,551C 195.153,556.193 180.153,555.36 165.5,548.5C 160.8,544.299 156.3,539.966 152,535.5C 150.263,536.62 148.429,537.62 146.5,538.5C 142.315,543.518 137.649,548.018 132.5,552C 123.898,552.164 121.565,548.164 125.5,540C 130.316,531.51 136.816,524.677 145,519.5C 150.126,518.408 155.293,518.241 160.5,519C 165.795,522.988 171.128,526.988 176.5,531C 180.37,532.092 184.204,533.259 188,534.5C 201.345,531.237 212.178,524.07 220.5,513C 224.802,509.493 229.135,506.327 233.5,503.5 Z"/></g>
<g><path style="opacity:0.891" fill="#04247c" d="M 240.5,566.5 C 242.833,566.5 245.167,566.5 247.5,566.5C 247.466,584.904 240.133,599.904 225.5,611.5C 213.918,620.111 200.918,622.944 186.5,620C 183.618,618.48 180.618,617.147 177.5,616C 170.933,610.767 165.1,604.933 160,598.5C 152.263,603.069 147.43,609.735 145.5,618.5C 136.941,621.609 132.941,618.609 133.5,609.5C 135.26,592.904 144.427,583.238 161,580.5C 164.145,581.411 167.312,582.245 170.5,583C 176.522,588.35 182.855,593.35 189.5,598C 193.072,599.405 196.739,599.738 200.5,599C 212.776,592.893 223.11,584.393 231.5,573.5C 234.467,570.882 237.467,568.549 240.5,566.5 Z"/></g>
<g><path style="opacity:0.769" fill="#1449bf" d="M 119.5,681.5 C 113.251,685.411 107.585,690.078 102.5,695.5C 99.4869,694.644 98.8203,692.811 100.5,690C 104.723,687.699 108.723,685.032 112.5,682C 114.941,680.608 117.274,680.441 119.5,681.5 Z"/></g>
<g><path style="opacity:0.004" fill="#0000ef" d="M 243.5,703.5 C 237.167,703.5 230.833,703.5 224.5,703.5C 224.791,702.351 225.624,701.684 227,701.5C 232.66,702.052 238.16,702.719 243.5,703.5 Z"/></g>
</svg>
