<?xml version="1.0" standalone="no"?>
<!DOCTYPE svg PUBLIC "-//W3C//DTD SVG 20010904//EN"
 "http://www.w3.org/TR/2001/REC-SVG-20010904/DTD/svg10.dtd">
<svg version="1.0" xmlns="http://www.w3.org/2000/svg"
 width="1920.000000pt" height="1080.000000pt" viewBox="0 0 1920.000000 1080.000000"
 preserveAspectRatio="xMidYMid meet">

<g transform="translate(0.000000,1080.000000) scale(0.100000,-0.100000)"
fill="#000000" stroke="none">
<path d="M751 8320 c-25 -124 -98 -270 -254 -505 -64 -97 -183 -259 -229 -313
-15 -18 -28 -36 -28 -40 0 -4 25 -16 56 -27 95 -32 194 -120 315 -280 l38 -51
3 -160 c3 -136 5 -158 18 -155 8 2 35 7 60 10 l45 6 0 55 c-1 30 -4 334 -9
675 -7 512 -6 625 5 650 12 26 15 -72 19 -675 l5 -705 44 -3 44 -3 -6 128 -5
128 53 110 c61 126 134 214 259 310 l75 57 -62 76 c-84 103 -105 133 -164 232
-95 161 -176 323 -213 428 -21 59 -42 108 -47 109 -6 2 -16 -23 -22 -57z"/>
<path d="M2660 7163 c-8 -3 -41 -29 -75 -57 -33 -28 -78 -62 -100 -76 -22 -13
-64 -44 -93 -68 -81 -69 -307 -199 -397 -229 -76 -26 -90 -27 -260 -26 -147 1
-207 6 -330 28 -243 43 -289 47 -368 35 -125 -20 -188 -23 -200 -11 -16 16
-75 13 -132 -7 l-50 -18 0 -1314 c-1 -960 -4 -1341 -13 -1410 -24 -195 -9
-261 73 -307 105 -60 233 -5 264 112 12 46 37 72 131 137 114 78 129 83 270
82 140 0 128 3 357 -103 210 -97 440 -147 645 -139 99 3 110 6 182 42 81 41
206 147 231 197 19 35 19 24 11 469 -3 206 -8 715 -11 1130 -3 415 -10 829
-15 920 -6 91 -12 259 -14 375 -4 201 -5 210 -26 227 -22 18 -52 22 -80 11z
m-2 -433 c-10 -208 -8 -593 9 -1988 l6 -543 -63 -64 c-35 -36 -91 -81 -123
-101 l-60 -37 -161 6 c-228 9 -291 25 -611 160 -90 37 -226 53 -322 37 -129
-22 -199 -56 -309 -151 -35 -30 -49 -37 -54 -27 -14 25 -30 375 -40 843 -21
997 -30 1417 -37 1597 l-6 186 39 11 c55 15 224 14 322 -4 45 -8 86 -16 90
-19 4 -2 63 -14 132 -26 97 -17 163 -22 295 -21 318 1 445 50 804 311 46 33
88 57 92 53 5 -5 3 -105 -3 -223z"/>
<path d="M2220 6258 c-14 -6 -67 -36 -118 -67 -124 -73 -169 -77 -309 -31 -75
24 -108 30 -141 26 -104 -14 -222 -100 -222 -161 0 -54 43 -75 60 -30 13 33
92 83 145 91 37 5 56 0 136 -37 84 -38 102 -42 174 -43 68 -1 88 3 135 26 109
54 204 154 198 208 -3 28 -22 34 -58 18z"/>
<path d="M2300 5705 c-18 -14 -72 -65 -119 -113 -114 -118 -190 -157 -301
-156 -60 0 -85 5 -125 26 -27 14 -59 36 -70 48 -11 13 -38 36 -59 51 -91 67
-210 17 -311 -130 -37 -54 -46 -75 -43 -102 5 -57 29 -48 128 45 119 113 126
115 196 38 95 -105 236 -156 371 -134 139 23 240 95 331 235 38 57 82 167 82
205 0 20 -44 14 -80 -13z"/>
<path d="M2404 5091 c-22 -15 -71 -64 -111 -108 -119 -133 -241 -213 -323
-213 -53 0 -103 27 -182 95 -114 101 -172 116 -266 69 -59 -29 -102 -74 -137
-144 -42 -83 -28 -170 27 -170 20 0 31 15 52 72 21 57 103 138 140 138 17 0
38 -14 63 -42 73 -82 118 -119 179 -149 52 -24 74 -29 139 -29 69 0 87 4 154
36 122 59 266 218 309 343 14 40 16 117 3 125 -5 3 -26 -7 -47 -23z"/>
<path d="M3390 6681 l0 -28 88 -6 c132 -8 206 -46 239 -120 17 -40 18 -98 21
-1006 2 -616 -1 -983 -7 -1018 -13 -68 -39 -105 -99 -140 -40 -24 -60 -28
-144 -31 l-98 -4 0 -34 0 -34 525 0 525 0 0 34 0 34 -97 4 c-140 6 -204 43
-235 137 -8 25 -13 174 -15 490 l-4 453 23 -5 c77 -20 220 -39 325 -44 283
-14 492 53 643 206 73 74 117 150 151 261 34 109 34 294 -1 399 -68 211 -261
378 -507 440 -143 36 -243 41 -795 41 l-538 0 0 -29z m1109 -140 c84 -26 137
-60 199 -125 165 -174 199 -503 74 -715 -40 -68 -126 -147 -201 -184 -65 -31
-68 -32 -206 -32 -79 0 -170 6 -207 14 l-68 13 0 509 c0 435 2 510 14 515 8 3
50 12 93 19 96 17 220 12 302 -14z"/>
<path d="M9020 6680 l0 -30 68 0 c139 0 235 -54 264 -150 18 -63 19 -1964 1
-2025 -16 -51 -64 -102 -118 -126 -24 -11 -80 -22 -129 -25 l-86 -7 0 -29 0
-28 946 2 946 3 103 325 c56 179 100 328 98 333 -2 4 -14 7 -27 7 -19 0 -28
-12 -50 -64 -67 -157 -176 -302 -274 -364 -116 -74 -289 -97 -677 -90 -212 4
-245 7 -280 24 -53 26 -74 59 -86 134 -16 103 -7 1864 10 1915 19 57 88 120
153 140 29 9 95 18 146 22 l92 6 0 29 0 28 -550 0 -550 0 0 -30z"/>
<path d="M8525 6424 c-8 -20 -15 -38 -15 -41 0 -18 -102 -201 -141 -255 -66
-89 -180 -194 -262 -242 -58 -33 -67 -43 -67 -67 l0 -29 130 0 130 0 0 -602
c0 -371 4 -628 11 -667 15 -95 45 -155 101 -206 139 -125 356 -97 501 65 41
46 97 140 112 188 6 20 3 22 -27 22 -28 -1 -37 -7 -60 -45 -30 -49 -72 -79
-132 -96 -53 -15 -100 -4 -141 32 -64 57 -65 63 -65 721 l0 588 190 0 190 0 0
65 0 65 -190 0 -190 0 0 270 0 270 -30 0 c-25 0 -32 -6 -45 -36z"/>
<path d="M5577 5867 l-248 -102 5 -29 c8 -38 8 -38 42 -26 51 20 130 17 161
-6 59 -44 58 -28 61 -649 2 -385 0 -582 -8 -607 -19 -66 -101 -118 -187 -118
-49 0 -63 -9 -63 -41 l0 -29 425 0 425 0 0 29 c0 32 -14 41 -62 41 -87 0 -184
67 -209 145 -10 30 -14 159 -16 504 l-4 463 43 76 c24 41 70 104 103 139 78
81 94 82 205 8 87 -58 128 -71 185 -61 73 14 133 110 119 187 -20 105 -106
170 -225 170 -126 1 -248 -89 -368 -271 l-61 -94 0 187 0 187 -37 -1 c-23 0
-135 -40 -286 -102z"/>
<path d="M7240 5961 c-268 -38 -491 -216 -589 -470 -42 -109 -62 -217 -68
-366 -9 -219 31 -413 114 -554 49 -82 150 -192 225 -243 247 -167 572 -154
781 32 130 117 240 308 271 470 5 31 3 37 -21 51 l-26 17 -49 -99 c-88 -175
-202 -265 -368 -288 -355 -49 -642 248 -674 697 l-5 82 574 0 575 0 0 34 c0
56 -29 202 -51 258 -30 77 -103 181 -162 233 -64 56 -163 108 -243 129 -74 19
-210 27 -284 17z m96 -136 c68 -20 150 -80 191 -138 39 -58 61 -127 70 -219
l6 -68 -385 0 -385 0 8 48 c22 118 63 200 136 275 98 101 235 139 359 102z"/>
<path d="M11730 5945 c-180 -40 -314 -134 -377 -264 -90 -183 29 -363 187
-283 58 29 75 71 76 193 2 123 16 163 73 210 107 88 316 71 406 -34 54 -63 84
-185 85 -340 0 -61 -2 -68 -22 -77 -13 -5 -88 -35 -168 -66 -184 -71 -385
-167 -476 -227 -93 -61 -188 -161 -222 -234 -24 -53 -27 -69 -27 -173 0 -144
22 -210 97 -294 95 -107 234 -148 390 -115 81 17 142 51 287 160 74 54 135 99
136 99 1 0 5 -27 8 -60 12 -110 48 -167 124 -196 108 -41 261 32 389 185 47
57 54 71 54 109 l0 44 -70 -61 c-80 -68 -111 -81 -149 -60 -56 31 -56 28 -62
624 -5 473 -8 557 -22 600 -39 119 -119 193 -262 241 -70 24 -99 27 -235 30
-110 3 -174 -1 -220 -11z m450 -1013 l0 -318 -62 -46 c-210 -153 -344 -174
-458 -71 -61 55 -85 99 -101 184 -31 168 76 325 296 433 72 36 304 135 318
136 4 0 7 -143 7 -318z"/>
<path d="M12940 5862 c-129 -52 -237 -97 -239 -98 -2 -2 2 -16 8 -32 l12 -28
58 15 c49 12 65 13 101 2 35 -10 45 -19 63 -59 22 -46 22 -54 22 -622 l0 -575
-25 -49 c-30 -60 -74 -86 -160 -93 -58 -6 -60 -7 -60 -34 l0 -29 405 0 405 0
0 28 c0 27 -2 28 -79 38 -93 13 -130 35 -160 97 -20 42 -21 57 -21 569 l0 526
71 66 c118 110 279 175 389 160 109 -15 166 -69 203 -191 19 -63 21 -100 25
-545 4 -515 0 -565 -45 -618 -36 -44 -71 -59 -152 -66 -70 -7 -71 -7 -71 -35
l0 -29 405 0 405 0 0 29 c0 27 -2 29 -62 35 -68 8 -102 22 -135 58 -46 50 -47
54 -54 628 -7 597 -8 609 -70 731 -69 138 -176 209 -325 217 -169 9 -313 -63
-496 -251 l-88 -89 0 171 0 171 -47 -1 c-36 -1 -106 -24 -283 -97z"/>
<path d="M15195 5946 c-140 -33 -251 -92 -358 -194 -190 -181 -280 -428 -264
-728 15 -271 91 -460 247 -614 84 -82 156 -129 243 -160 357 -126 734 96 860
505 39 129 40 131 14 142 -20 9 -25 4 -70 -80 -81 -153 -144 -221 -262 -279
-76 -38 -147 -51 -242 -45 -71 4 -97 11 -156 40 -148 73 -259 230 -319 449
-20 72 -23 106 -23 263 1 169 3 185 29 263 57 172 171 294 306 328 123 31 236
3 299 -73 29 -36 35 -53 61 -195 6 -31 21 -69 32 -84 45 -56 158 -81 231 -50
57 24 80 59 85 126 4 53 0 69 -27 124 -53 108 -162 195 -311 248 -72 26 -287
34 -375 14z"/>
<path d="M16700 5940 c-130 -34 -213 -83 -321 -190 -83 -82 -103 -108 -143
-190 -84 -173 -120 -393 -98 -603 15 -148 35 -223 87 -332 77 -159 197 -280
350 -350 99 -46 164 -59 285 -58 199 2 347 75 474 233 95 118 154 234 178 353
11 55 11 60 -7 73 -10 8 -21 14 -24 14 -3 0 -26 -42 -51 -93 -107 -219 -301
-326 -522 -289 -118 20 -208 69 -303 165 -89 90 -132 158 -171 267 -26 77 -54
235 -54 313 l0 47 574 0 574 0 -5 63 c-24 297 -203 522 -465 582 -95 21 -264
19 -358 -5z m248 -140 c62 -33 130 -99 158 -152 21 -41 44 -146 44 -205 l0
-53 -379 0 c-209 0 -382 4 -385 8 -9 14 22 141 48 198 32 69 79 127 140 172
75 55 136 73 231 69 68 -3 90 -8 143 -37z"/>
<path d="M17830 5864 c-129 -52 -238 -98 -242 -102 -3 -4 -4 -19 -1 -33 l5
-25 58 14 c105 26 166 -4 192 -92 9 -30 12 -195 13 -601 l0 -560 -23 -43 c-29
-55 -69 -79 -159 -94 -70 -11 -73 -13 -73 -40 l0 -28 420 0 420 0 0 28 c0 28
-2 29 -71 39 -95 15 -154 52 -188 118 l-26 50 -3 476 -3 476 37 64 c50 86 117
172 150 194 44 28 79 21 160 -33 119 -81 180 -90 244 -35 42 35 60 74 60 130
-1 145 -165 233 -325 172 -47 -18 -76 -39 -140 -103 -45 -45 -103 -117 -130
-161 l-50 -80 -3 183 -2 182 -43 0 c-29 -1 -112 -29 -277 -96z"/>
</g>
</svg>
